<mxfile host="app.diagrams.net" modified="2023-11-01T07:57:57.418Z" agent="Mozilla/5.0 (Macintosh; Intel Mac OS X 10_15_7) AppleWebKit/605.1.15 (KHTML, like Gecko) Version/15.3 Safari/605.1.15" etag="UWKbTgdHS-Q5ovD41Eax" version="21.6.6" type="github">
  <diagram name="第 1 页" id="bPkFeG58dfKmsc8ZUoCN">
    <mxGraphModel dx="1026" dy="648" grid="1" gridSize="10" guides="1" tooltips="1" connect="1" arrows="1" fold="1" page="1" pageScale="1" pageWidth="827" pageHeight="1169" math="0" shadow="0">
      <root>
        <mxCell id="0" />
        <mxCell id="1" parent="0" />
        <mxCell id="cy8ZLoVMOyac3jTYZGZs-17" style="edgeStyle=orthogonalEdgeStyle;rounded=0;orthogonalLoop=1;jettySize=auto;html=1;entryX=1;entryY=0.5;entryDx=0;entryDy=0;dashed=1;" edge="1" parent="1" source="cy8ZLoVMOyac3jTYZGZs-9" target="cy8ZLoVMOyac3jTYZGZs-2">
          <mxGeometry relative="1" as="geometry">
            <Array as="points">
              <mxPoint x="600" y="188" />
            </Array>
          </mxGeometry>
        </mxCell>
        <mxCell id="cy8ZLoVMOyac3jTYZGZs-9" value="" style="ellipse;shape=cloud;whiteSpace=wrap;html=1;" vertex="1" parent="1">
          <mxGeometry x="530" y="275" width="152" height="110" as="geometry" />
        </mxCell>
        <mxCell id="cy8ZLoVMOyac3jTYZGZs-21" style="edgeStyle=orthogonalEdgeStyle;rounded=0;orthogonalLoop=1;jettySize=auto;html=1;entryX=0;entryY=0.5;entryDx=0;entryDy=0;" edge="1" parent="1">
          <mxGeometry relative="1" as="geometry">
            <mxPoint x="180" y="196" as="sourcePoint" />
            <mxPoint x="320" y="195.5" as="targetPoint" />
          </mxGeometry>
        </mxCell>
        <mxCell id="cy8ZLoVMOyac3jTYZGZs-1" value="MP" style="rounded=1;whiteSpace=wrap;html=1;" vertex="1" parent="1">
          <mxGeometry x="50" y="148" width="130" height="80" as="geometry" />
        </mxCell>
        <mxCell id="cy8ZLoVMOyac3jTYZGZs-12" style="edgeStyle=orthogonalEdgeStyle;rounded=0;orthogonalLoop=1;jettySize=auto;html=1;entryX=0.5;entryY=0;entryDx=0;entryDy=0;" edge="1" parent="1" source="cy8ZLoVMOyac3jTYZGZs-2" target="cy8ZLoVMOyac3jTYZGZs-3">
          <mxGeometry relative="1" as="geometry" />
        </mxCell>
        <mxCell id="cy8ZLoVMOyac3jTYZGZs-24" style="edgeStyle=orthogonalEdgeStyle;rounded=0;orthogonalLoop=1;jettySize=auto;html=1;entryX=1;entryY=0.5;entryDx=0;entryDy=0;dashed=1;" edge="1" parent="1">
          <mxGeometry relative="1" as="geometry">
            <mxPoint x="320" y="167.5" as="sourcePoint" />
            <mxPoint x="180" y="168" as="targetPoint" />
          </mxGeometry>
        </mxCell>
        <mxCell id="cy8ZLoVMOyac3jTYZGZs-2" value="Adobe" style="rounded=1;whiteSpace=wrap;html=1;fillColor=#dae8fc;strokeColor=#6c8ebf;" vertex="1" parent="1">
          <mxGeometry x="320" y="150" width="140" height="75" as="geometry" />
        </mxCell>
        <mxCell id="cy8ZLoVMOyac3jTYZGZs-13" style="edgeStyle=orthogonalEdgeStyle;rounded=0;orthogonalLoop=1;jettySize=auto;html=1;" edge="1" parent="1" source="cy8ZLoVMOyac3jTYZGZs-3" target="cy8ZLoVMOyac3jTYZGZs-4">
          <mxGeometry relative="1" as="geometry" />
        </mxCell>
        <mxCell id="cy8ZLoVMOyac3jTYZGZs-3" value="Firebase" style="rounded=1;whiteSpace=wrap;html=1;" vertex="1" parent="1">
          <mxGeometry x="315" y="300" width="150" height="80" as="geometry" />
        </mxCell>
        <mxCell id="cy8ZLoVMOyac3jTYZGZs-4" value="" style="html=1;verticalLabelPosition=bottom;align=center;labelBackgroundColor=#ffffff;verticalAlign=top;strokeWidth=2;strokeColor=#0080F0;shadow=0;dashed=0;shape=mxgraph.ios7.icons.smartphone;" vertex="1" parent="1">
          <mxGeometry x="557" y="325" width="18" height="30" as="geometry" />
        </mxCell>
        <mxCell id="cy8ZLoVMOyac3jTYZGZs-5" value="" style="html=1;verticalLabelPosition=bottom;align=center;labelBackgroundColor=#ffffff;verticalAlign=top;strokeWidth=2;strokeColor=#0080F0;shadow=0;dashed=0;shape=mxgraph.ios7.icons.smartphone;" vertex="1" parent="1">
          <mxGeometry x="597" y="325" width="18" height="30" as="geometry" />
        </mxCell>
        <mxCell id="cy8ZLoVMOyac3jTYZGZs-6" value="" style="html=1;verticalLabelPosition=bottom;align=center;labelBackgroundColor=#ffffff;verticalAlign=top;strokeWidth=2;strokeColor=#0080F0;shadow=0;dashed=0;shape=mxgraph.ios7.icons.smartphone;" vertex="1" parent="1">
          <mxGeometry x="637" y="325" width="18" height="30" as="geometry" />
        </mxCell>
        <mxCell id="cy8ZLoVMOyac3jTYZGZs-11" value="1. Pass ZIP file(Content, Config)&amp;nbsp;" style="text;html=1;strokeColor=none;fillColor=none;align=center;verticalAlign=middle;whiteSpace=wrap;rounded=0;" vertex="1" parent="1">
          <mxGeometry x="180" y="210" width="130" height="30" as="geometry" />
        </mxCell>
        <mxCell id="cy8ZLoVMOyac3jTYZGZs-19" value="4. Tracking-Impression&amp;nbsp;" style="text;html=1;strokeColor=none;fillColor=none;align=center;verticalAlign=middle;whiteSpace=wrap;rounded=0;" vertex="1" parent="1">
          <mxGeometry x="480" y="220" width="130" height="30" as="geometry" />
        </mxCell>
        <mxCell id="cy8ZLoVMOyac3jTYZGZs-22" value="2. Send APP push&amp;nbsp;" style="text;html=1;strokeColor=none;fillColor=none;align=center;verticalAlign=middle;whiteSpace=wrap;rounded=0;" vertex="1" parent="1">
          <mxGeometry x="276" y="250" width="130" height="30" as="geometry" />
        </mxCell>
        <mxCell id="cy8ZLoVMOyac3jTYZGZs-23" value="3. Send push&amp;nbsp;" style="text;html=1;strokeColor=none;fillColor=none;align=center;verticalAlign=middle;whiteSpace=wrap;rounded=0;" vertex="1" parent="1">
          <mxGeometry x="460" y="355" width="130" height="30" as="geometry" />
        </mxCell>
        <mxCell id="cy8ZLoVMOyac3jTYZGZs-25" value="5. Tracing Result file" style="text;html=1;strokeColor=none;fillColor=none;align=center;verticalAlign=middle;whiteSpace=wrap;rounded=0;" vertex="1" parent="1">
          <mxGeometry x="190" y="130" width="130" height="30" as="geometry" />
        </mxCell>
        <mxCell id="cy8ZLoVMOyac3jTYZGZs-26" style="edgeStyle=orthogonalEdgeStyle;rounded=0;orthogonalLoop=1;jettySize=auto;html=1;entryX=1;entryY=0.5;entryDx=0;entryDy=0;dashed=1;" edge="1" parent="1" source="cy8ZLoVMOyac3jTYZGZs-27" target="cy8ZLoVMOyac3jTYZGZs-32">
          <mxGeometry relative="1" as="geometry">
            <Array as="points">
              <mxPoint x="590" y="588" />
            </Array>
          </mxGeometry>
        </mxCell>
        <mxCell id="cy8ZLoVMOyac3jTYZGZs-27" value="" style="ellipse;shape=cloud;whiteSpace=wrap;html=1;" vertex="1" parent="1">
          <mxGeometry x="520" y="675" width="152" height="110" as="geometry" />
        </mxCell>
        <mxCell id="cy8ZLoVMOyac3jTYZGZs-28" style="edgeStyle=orthogonalEdgeStyle;rounded=0;orthogonalLoop=1;jettySize=auto;html=1;entryX=0;entryY=0.5;entryDx=0;entryDy=0;" edge="1" parent="1">
          <mxGeometry relative="1" as="geometry">
            <mxPoint x="170" y="596" as="sourcePoint" />
            <mxPoint x="310" y="595.5" as="targetPoint" />
          </mxGeometry>
        </mxCell>
        <mxCell id="cy8ZLoVMOyac3jTYZGZs-29" value="MP" style="rounded=1;whiteSpace=wrap;html=1;" vertex="1" parent="1">
          <mxGeometry x="40" y="548" width="130" height="80" as="geometry" />
        </mxCell>
        <mxCell id="cy8ZLoVMOyac3jTYZGZs-30" style="edgeStyle=orthogonalEdgeStyle;rounded=0;orthogonalLoop=1;jettySize=auto;html=1;entryX=0.5;entryY=0;entryDx=0;entryDy=0;" edge="1" parent="1" source="cy8ZLoVMOyac3jTYZGZs-32" target="cy8ZLoVMOyac3jTYZGZs-34">
          <mxGeometry relative="1" as="geometry" />
        </mxCell>
        <mxCell id="cy8ZLoVMOyac3jTYZGZs-31" style="edgeStyle=orthogonalEdgeStyle;rounded=0;orthogonalLoop=1;jettySize=auto;html=1;entryX=1;entryY=0.5;entryDx=0;entryDy=0;dashed=1;" edge="1" parent="1">
          <mxGeometry relative="1" as="geometry">
            <mxPoint x="310" y="567.5" as="sourcePoint" />
            <mxPoint x="170" y="568" as="targetPoint" />
          </mxGeometry>
        </mxCell>
        <mxCell id="cy8ZLoVMOyac3jTYZGZs-32" value="CDC1.0&lt;br&gt;Message Center Service" style="rounded=1;whiteSpace=wrap;html=1;fillColor=#fff2cc;strokeColor=#d6b656;" vertex="1" parent="1">
          <mxGeometry x="310" y="550" width="140" height="75" as="geometry" />
        </mxCell>
        <mxCell id="cy8ZLoVMOyac3jTYZGZs-33" style="edgeStyle=orthogonalEdgeStyle;rounded=0;orthogonalLoop=1;jettySize=auto;html=1;" edge="1" parent="1" source="cy8ZLoVMOyac3jTYZGZs-34" target="cy8ZLoVMOyac3jTYZGZs-35">
          <mxGeometry relative="1" as="geometry" />
        </mxCell>
        <mxCell id="cy8ZLoVMOyac3jTYZGZs-34" value="Firebase" style="rounded=1;whiteSpace=wrap;html=1;" vertex="1" parent="1">
          <mxGeometry x="305" y="700" width="150" height="80" as="geometry" />
        </mxCell>
        <mxCell id="cy8ZLoVMOyac3jTYZGZs-35" value="" style="html=1;verticalLabelPosition=bottom;align=center;labelBackgroundColor=#ffffff;verticalAlign=top;strokeWidth=2;strokeColor=#0080F0;shadow=0;dashed=0;shape=mxgraph.ios7.icons.smartphone;" vertex="1" parent="1">
          <mxGeometry x="547" y="725" width="18" height="30" as="geometry" />
        </mxCell>
        <mxCell id="cy8ZLoVMOyac3jTYZGZs-36" value="" style="html=1;verticalLabelPosition=bottom;align=center;labelBackgroundColor=#ffffff;verticalAlign=top;strokeWidth=2;strokeColor=#0080F0;shadow=0;dashed=0;shape=mxgraph.ios7.icons.smartphone;" vertex="1" parent="1">
          <mxGeometry x="587" y="725" width="18" height="30" as="geometry" />
        </mxCell>
        <mxCell id="cy8ZLoVMOyac3jTYZGZs-37" value="" style="html=1;verticalLabelPosition=bottom;align=center;labelBackgroundColor=#ffffff;verticalAlign=top;strokeWidth=2;strokeColor=#0080F0;shadow=0;dashed=0;shape=mxgraph.ios7.icons.smartphone;" vertex="1" parent="1">
          <mxGeometry x="627" y="725" width="18" height="30" as="geometry" />
        </mxCell>
        <mxCell id="cy8ZLoVMOyac3jTYZGZs-38" value="1. Call APP push service&amp;nbsp;" style="text;html=1;strokeColor=none;fillColor=none;align=center;verticalAlign=middle;whiteSpace=wrap;rounded=0;" vertex="1" parent="1">
          <mxGeometry x="170" y="610" width="130" height="30" as="geometry" />
        </mxCell>
        <mxCell id="cy8ZLoVMOyac3jTYZGZs-39" value="4. Tracking-Impression via click streaming?" style="text;html=1;strokeColor=none;fillColor=none;align=center;verticalAlign=middle;whiteSpace=wrap;rounded=0;" vertex="1" parent="1">
          <mxGeometry x="470" y="620" width="130" height="30" as="geometry" />
        </mxCell>
        <mxCell id="cy8ZLoVMOyac3jTYZGZs-40" value="2. Send APP push&amp;nbsp;" style="text;html=1;strokeColor=none;fillColor=none;align=center;verticalAlign=middle;whiteSpace=wrap;rounded=0;" vertex="1" parent="1">
          <mxGeometry x="266" y="650" width="130" height="30" as="geometry" />
        </mxCell>
        <mxCell id="cy8ZLoVMOyac3jTYZGZs-41" value="3. Send push&amp;nbsp;" style="text;html=1;strokeColor=none;fillColor=none;align=center;verticalAlign=middle;whiteSpace=wrap;rounded=0;" vertex="1" parent="1">
          <mxGeometry x="450" y="755" width="130" height="30" as="geometry" />
        </mxCell>
        <mxCell id="cy8ZLoVMOyac3jTYZGZs-42" value="5. Tracing Result Message" style="text;html=1;strokeColor=none;fillColor=none;align=center;verticalAlign=middle;whiteSpace=wrap;rounded=0;" vertex="1" parent="1">
          <mxGeometry x="180" y="530" width="130" height="30" as="geometry" />
        </mxCell>
        <mxCell id="cy8ZLoVMOyac3jTYZGZs-43" value="" style="endArrow=none;dashed=1;html=1;dashPattern=1 3;strokeWidth=2;rounded=0;" edge="1" parent="1">
          <mxGeometry width="50" height="50" relative="1" as="geometry">
            <mxPoint x="20" y="470" as="sourcePoint" />
            <mxPoint x="750" y="470" as="targetPoint" />
          </mxGeometry>
        </mxCell>
        <mxCell id="cy8ZLoVMOyac3jTYZGZs-44" value="" style="endArrow=none;dashed=1;html=1;dashPattern=1 3;strokeWidth=2;rounded=0;" edge="1" parent="1">
          <mxGeometry width="50" height="50" relative="1" as="geometry">
            <mxPoint x="20" y="980" as="sourcePoint" />
            <mxPoint x="770" y="980" as="targetPoint" />
          </mxGeometry>
        </mxCell>
      </root>
    </mxGraphModel>
  </diagram>
</mxfile>
